<svg xmlns="http://www.w3.org/2000/svg" data-name="Layer 1" width="598.383" height="519.366"><path d="m554.03 481.345 16.118-5.113a54.561 54.561 0 0 0-.388-26.249c-6.476 14.399-25.475 17.926-36.3 29.419a32.819 32.819 0 0 0-8.395 27.18l-3.392 11.503a54.994 54.994 0 0 0 40.024-22.767 53.121 53.121 0 0 0 6.225-11.783c-6.874-.689-13.893-2.19-13.893-2.19Z" fill="#f2f2f2"/><path d="m536.805 460.072 12.147-11.765a54.561 54.561 0 0 0-12.054-23.32c.625 15.775-14.806 27.406-19.37 42.52a32.819 32.819 0 0 0 4.608 28.07l2.095 11.81a54.994 54.994 0 0 0 25.67-38.228 53.12 53.12 0 0 0 .315-13.323c-6.46 2.45-13.41 4.236-13.41 4.236Z" fill="#f2f2f2"/><path d="M456.06 34.484H1.767a1.807 1.807 0 0 1 0-3.613H456.06a1.807 1.807 0 0 1 0 3.613Z" fill="#3f3d56"/><ellipse cx="32.692" cy="10.823" rx="10.588" ry="10.823" fill="#3f3d56"/><ellipse cx="69.267" cy="10.823" rx="10.588" ry="10.823" fill="#3f3d56"/><ellipse cx="105.842" cy="10.823" rx="10.588" ry="10.823" fill="#3f3d56"/><path d="M434.039 2.683h-25.981a1.968 1.968 0 0 0 0 3.934h25.981a1.968 1.968 0 0 0 0-3.934ZM434.039 10.067h-25.981a1.968 1.968 0 0 0 0 3.935h25.981a1.968 1.968 0 0 0 0-3.935ZM434.039 17.442h-25.981a1.968 1.968 0 0 0 0 3.934h25.981a1.968 1.968 0 0 0 0-3.934Z" fill="#3f3d56"/><circle cx="35.193" cy="94.795" r="13.089" fill="#e6e7e8"/><path d="M368.516 123.78H26.002a3.898 3.898 0 1 1 0-7.796h342.514a3.898 3.898 0 1 1 0 7.796ZM278.686 139.182H26.002a3.898 3.898 0 0 1 0-7.796h252.684a3.898 3.898 0 1 1 0 7.796Z" fill="#e6e7e8"/><circle cx="35.193" cy="299.1" r="13.089" fill="#e6e7e8"/><path d="M368.516 328.084H26.002a3.898 3.898 0 1 1 0-7.795h342.514a4.36 4.36 0 0 1 4.114 4.198 3.85 3.85 0 0 1-4.114 3.597ZM278.686 343.486H26.002a3.898 3.898 0 0 1 0-7.796h252.684a3.898 3.898 0 1 1 0 7.796Z" fill="#e6e7e8"/><circle cx="35.193" cy="189.247" r="13.089" fill="#e6e7e8"/><path d="M368.516 218.231H26.002a3.898 3.898 0 1 1 0-7.796h342.514a3.898 3.898 0 1 1 0 7.796ZM320.818 233.633H26.002a3.898 3.898 0 0 1 0-7.796h294.816a3.898 3.898 0 0 1 0 7.796ZM300.808 249.035H26.002a3.898 3.898 0 0 1 0-7.796h274.806a3.898 3.898 0 1 1 0 7.796Z" fill="#e6e7e8"/><circle cx="306.495" cy="324.421" r="96.934" fill="#3182ce"/><circle cx="306.361" cy="344.393" r="13.848" fill="#3f3d56"/><circle cx="306.361" cy="344.393" r="6.391" fill="#3182ce"/><path d="M332.067 375.219h-51.144a19.123 19.123 0 0 1-19.102-19.101v-23.45a19.123 19.123 0 0 1 19.102-19.1h51.144a19.123 19.123 0 0 1 19.1 19.1v23.45a19.122 19.122 0 0 1-19.1 19.1Zm-51.144-59.652a17.121 17.121 0 0 0-17.102 17.102v23.449a17.12 17.12 0 0 0 17.102 17.1h51.144a17.12 17.12 0 0 0 17.1-17.1v-23.45a17.12 17.12 0 0 0-17.1-17.1Z" fill="#fff"/><path d="M277.894 362.49h45.395a17.943 17.943 0 0 0 17.943-17.943v-19.623a17.863 17.863 0 0 0-1.184-6.365 17.895 17.895 0 0 1 7.131 14.295v19.623a17.943 17.943 0 0 1-17.943 17.943h-45.395a17.933 17.933 0 0 1-16.759-11.578 17.84 17.84 0 0 0 10.812 3.648Z" fill="#3f3d56"/><path fill="#a0616a" d="m416.909 506.542-11.154-.001-5.307-43.027 16.464.001-.003 43.027z"/><path d="M417.303 518.178H383v-.435a13.352 13.352 0 0 1 13.351-13.351h.001l6.266-4.754 11.69 4.755h2.995Z" fill="#2f2e41"/><path fill="#a0616a" d="m495.838 506.542 11.155-.001 5.307-43.027-16.464.001.002 43.027z"/><path d="M495.445 518.178h34.303v-.435a13.352 13.352 0 0 0-13.352-13.351l-6.266-4.754-11.69 4.755h-2.995ZM399.957 431.896c.165-2.455 1.475-16.033 1.475-16.033l3.137-28.794 5.53-76.328.361-4.997 28.967-5.561 19.798-9.491 23.531 7.522 18.324 6.871s.03 2.942.172 6.495c.188 4.651.518 10.354 1.302 11.836 1.31 2.62.98 16.684.98 16.684s1.303 28.614 2.942 31.752 1.969 9.671 1.475 10.981 1.639 35.674 1.639 35.674 5.476 60.81 2.04 69.98-16.418 3.163-16.418 3.163.628-2.447-3.137-3.6-15.233-87.38-15.233-87.38-2.133-17.68-4.094-22.747-3.765-19.304-3.765-19.304-12.111-23.563-12.268-28.802c0 0-1.585-4.903-3.083.494s-5.914 18.323-5.914 18.323l-4.306 15.876-5.067 23.72-3.279 19.97s-4.91 26.504-5.695 27.65 0 25.358 0 25.358-3.796 20.622-9.161 24.222-19.58.057-19.58.057-.838-51.136-.673-53.59Z" fill="#2f2e41"/><path fill="#2f2e41" d="m412.315 236.13 6.44 19.398-7.946 9.459 3.499 3.601-2.581 5.09-6.73 53.354 36.897 13.993 12.425-15.578 9.797 15.578 42.694-10.432-10.888-68.037v-4.448l-3.074-8.589v-18.182l8.118-54.122-24.23-8.487-11.585-9.169-3.749 12.895-15.962-2.839-.416-9.688-12.213 11.539-10.284 2.933-12.314 2.816-1.569 3.922 3.137-.784-.509 51.024 1.043 4.753z"/><path d="m401.286 307.104 6.197-59.982 1.636-24.686-17.345-3.136s.687 17.651-1.585 27.61c-2.242 9.828-.297 58.877-.159 60.189a8.439 8.439 0 1 0 11.256.005Z" fill="#a0616a"/><path d="m384.368 259.552 4.824.996 16.55 3.427.918.189 1.953-7.766 2.267-2.416 4.314-22.605.227-1.177 6.519-13.93 4.51-41.87-16.77 3.011c-.087.086-.166.18-.244.275-2.408 2.73-4.126 6.526-6.934 10.346-9.138 12.432-16.15 42.639-15.875 59.19.008.266-.267.556-.596.854a9.18 9.18 0 0 0-1.663 11.476Z" fill="#2f2e41"/><path d="m509.108 307.104-6.197-59.982-1.635-24.686 17.345-3.136s-.688 17.651 1.585 27.61c2.242 9.828.297 58.877.158 60.189a8.439 8.439 0 1 1-11.256.005Z" fill="#a0616a"/><path d="m526.027 259.552-4.824.996-16.55 3.427-.918.189-1.953-7.766-2.267-2.416-4.314-22.605-.228-1.177-6.518-13.93 1.49-41.87 10.77 3.011c.087.086.165.18.244.275 2.408 2.73 4.125 6.526 6.933 10.346 9.138 12.432 16.15 42.639 15.876 59.19-.008.266.266.556.596.854a9.18 9.18 0 0 1 1.663 11.476Z" fill="#2f2e41"/><path d="m437.144 180.594 7.88-20.667 20.127-.368 6.679 21.035 24.006 134.104s-73.544 20.48-72.798-4.138c.784-25.885 4.323-60.268 4.323-60.268Z" fill="#3182ce"/><circle cx="454.637" cy="130.437" r="23.71" fill="#a0616a"/><path d="M429.53 113.237c3.86-4.202 8.688-11.892 23.312-15.122 18.07-3.99 26.609 12.334 22.052 12.601 13.325 4.035 4.765 31.61.945 29.298a1.125 1.125 0 0 1-.095-.073 18.77 18.77 0 0 1-7.497-12.807l-.725-6.525c-.103 5.309-5.53 6.011-11.074 4.056a6.955 6.955 0 0 1 4.914-4.838 23.786 23.786 0 0 1-13.972 6.079 9.51 9.51 0 0 1 4.626-6.364l-.22-.215a22.85 22.85 0 0 1-7.33 4.15c-3.055.876-6.717.402-8.81-1.99a6.5 6.5 0 0 1-1.253-2.254c.452 4.204-2.368 9.004-4.559 8.18-1.822-.354-2.884-11.38-.315-14.176Z" fill="#2f2e41"/><path d="M598.383 518.176a1.186 1.186 0 0 1-1.19 1.19h-280.29a1.19 1.19 0 0 1 0-2.38h280.29a1.187 1.187 0 0 1 1.19 1.19Z" fill="#ccc"/><path d="M307.282 271.863c-9.481 0-17.815 4.292-22.533 10.734a29.121 29.121 0 0 1 17.373-5.574c14.681 0 26.626 10.284 26.626 22.925v10.508h5.16v-15.668c0-12.641-11.945-22.925-26.626-22.925Z" fill="#3f3d56"/><path d="M337.453 315.834h-61.918v-18.218c0-14.698 13.889-26.656 30.96-26.656s30.958 11.958 30.958 26.656Zm-59.918-2h57.918v-16.218c0-13.596-12.99-24.656-28.959-24.656s-28.959 11.06-28.959 24.656Z" fill="#fff"/><path d="M322.352 308.879h-31.715a5.388 5.388 0 0 1-5.381-5.382v-7.25c0-10.108 9.528-18.332 21.238-18.332s21.24 8.224 21.24 18.332v7.25a5.388 5.388 0 0 1-5.382 5.382Zm-15.857-28.964c-10.609 0-19.24 7.326-19.24 16.332v7.25a3.385 3.385 0 0 0 3.382 3.382h31.715a3.385 3.385 0 0 0 3.381-3.382v-7.25c0-9.006-8.63-16.332-19.238-16.332Z" fill="#fff"/></svg>